<svg width="1200" height="1200" xmlns="http://www.w3.org/2000/svg" class="icon">
 <defs>
  <style type="text/css"/>
 </defs>
 <g>
  <title>background</title>
  <rect fill="none" id="canvas_background" height="402" width="582" y="-1" x="-1"/>
 </g>
 <g>
  <title>Layer 1</title>
  <path id="svg_1" fill="#ffffff" class="selected" d="m911.252232,169.35377l-64.0252,0l0,-32.0126c0,-17.69791 -14.31777,-32.01567 -32.01977,-32.01567c-17.68869,0 -32.00953,14.31776 -32.00953,32.01567l0,32.01157l-384.15631,0l0,-32.01157c0,-17.69791 -14.31572,-32.01567 -32.00953,-32.01567c-17.69484,0 -32.00953,14.31776 -32.00953,32.01567l0,32.01157l-64.02827,0c-70.71488,0 -128.05143,57.33758 -128.05143,128.05347l0,128.05143l0,448.18151c0,70.7159 57.33655,128.05143 128.05143,128.05143l640.25916,0c70.71385,0 128.05143,-57.33553 128.05143,-128.05143l0,-448.18151l0,-128.05143c-0.00103,-70.71487 -57.3386,-128.05244 -128.05245,-128.05244zm-320.13009,448.18356l-96.03985,0l-32.01158,0l0,-64.0252l32.01158,0l96.03985,0l64.0252,0l32.00953,0l32.01771,0l0,32.00851l0,64.02622l0,32.01567l-64.02724,0l0,64.02418l-64.0252,0l0,128.05347l-64.02725,0l0,-128.05347l64.02725,0l0,-64.02418l64.0252,0l0,-32.01567l0,-32.00953l-64.0252,0zm-384.16042,-192.07969l0,-128.05143c0,-35.26789 28.70103,-64.02929 64.03134,-64.02929l64.02827,0l0,32.01158c0,17.6979 14.3147,32.01771 32.00953,32.01771c17.69382,0 32.00953,-14.31981 32.00953,-32.01771l0,-32.01158l384.15632,0l0,32.01158c0,17.6979 14.32084,32.01771 32.00953,32.01771c17.702,0 32.01977,-14.31981 32.01977,-32.01771l0,-32.01158l64.0252,0c35.32724,0 64.02417,28.7614 64.02417,64.02929l0,128.05143l-768.31366,0z"/>
  <path stroke="null" d="m58.369735,631.600051c0,2.831955 0,11.327644 0,19.823421c0,11.327644 0,16.991466 0,25.487155c0,8.495777 0,14.159599 0,22.655288c0,8.495777 -3.261568,14.159599 0,14.159599c3.261568,0 0,-5.663822 0,-11.327644c0,-22.655288 -1.625181,-39.471069 -3.261511,-56.638221c-1.345063,-14.11138 0,-28.31911 3.261511,-33.982932c3.261517,-5.663822 4.757908,-7.627573 6.523034,-11.327644c1.24812,-2.616337 4.997848,-2.268579 9.784545,5.663822c7.568467,12.542196 19.479457,21.657061 22.83062,33.982932c2.997376,11.024579 0,16.991466 0,22.655288l0,2.831867" id="svg_2" fill-opacity="null" stroke-opacity="null" stroke-width="null" fill="none"/>
  <polyline stroke-linecap="round" id="svg_3" points="527.450980392157,592.156862745098 527.450980392157,592.156862745098 527.450980392157,592.156862745098 " fill-opacity="null" stroke-opacity="null" stroke-width="null" stroke="null" fill="none"/>
  <polyline transform="rotate(78.05580139160156 602.9411621093748,574.5098266601565) " stroke-linecap="round" id="svg_4" points="603.9215686274512,574.5098039215686 601.9607843137256,574.5098039215686 " fill-opacity="null" stroke-opacity="null" stroke-width="null" stroke="null" fill="none"/>
  <path d="m494.117645,590.196106c1.960785,0 9.885986,-0.571472 25.490204,1.960754c19.737976,3.203003 41.176453,3.92157 56.862732,3.92157c13.725525,0 15.686279,0 17.647095,0c3.92157,0 3.92157,0 5.882324,0c1.960754,0 5.882324,0 9.803894,0c3.92157,0 5.882385,0 7.84314,0c3.92157,0 3.92157,0 7.84314,0c3.92157,0 3.92157,0 5.882385,0c5.882324,0 13.725464,0 17.647034,0c3.92157,0 4.070862,-0.750366 5.882385,0c2.56189,1.061218 8.919861,5.794434 15.686279,7.84314c1.876648,0.568176 5.568237,0.02533 5.882324,1.960754c0.993225,6.120544 4.742859,8.346313 7.84314,17.647095c1.240112,3.720337 0,5.882324 0,7.84314c0,3.92157 0.239563,3.936279 0,5.882324c-0.987793,8.023926 -2.860352,13.12439 -3.92157,15.686279c-0.750366,1.811523 -1.960754,5.882385 -3.92157,5.882385l0,0l-1.960754,0l0,1.960754" id="svg_5" fill-opacity="null" stroke-opacity="null" stroke-width="null" stroke="null" fill="none"/>
  <polyline stroke="null" transform="rotate(-95.71060943603516 623.5294189453125,615.686279296875) " stroke-linecap="round" id="svg_6" points="623.5294189453125,615.686279296875 623.5294189453125,615.686279296875 " fill-opacity="null" stroke-opacity="null" stroke-width="null" fill="none"/>
  <rect id="svg_7" height="337.254964" width="262.745105" y="544.117602" x="447.058815" stroke-width="null" fill="#ffffff"/>
  <rect stroke="null" id="svg_8" height="65.196073" width="255.882162" y="552.941183" x="463.235318" stroke-width="null" fill="#ffffff"/>
  <rect stroke="null" id="svg_9" height="64.215629" width="65.196017" y="617.842583" x="654.509219" fill-opacity="null" stroke-opacity="null" stroke-width="null" fill="#ffffff"/>
  <rect stroke="null" id="svg_10" height="64.215629" width="64.705824" y="681.568017" x="590.783779" stroke-opacity="null" stroke-width="null" fill="#ffffff"/>
  <rect stroke="null" id="svg_11" height="127.941077" width="65.686223" y="745.783655" x="526.077957" stroke-opacity="null" stroke-width="null" fill="#ffffff"/>
 </g>
</svg>