<?xml version="1.0" standalone="no"?><!DOCTYPE svg PUBLIC "-//W3C//DTD SVG 1.1//EN" "http://www.w3.org/Graphics/SVG/1.1/DTD/svg11.dtd"><svg t="1574327346253" class="icon" viewBox="0 0 1024 1024" version="1.1" xmlns="http://www.w3.org/2000/svg" p-id="6474" xmlns:xlink="http://www.w3.org/1999/xlink" width="200" height="200"><defs><style type="text/css"></style></defs><path d="M716.264 653.127c-28.234-23.964-59.699-42.629-93.52-55.468-6.527-2.479-13.113-4.727-19.75-6.745 20.789-10.649 39.965-25.109 56.746-43.068 38.84-41.56 60.23-96.798 60.23-155.546 0-58.757-21.391-113.997-60.23-155.55-38.84-41.551-90.48-64.433-145.402-64.433-54.918 0-106.551 22.882-145.387 64.438-38.832 41.549-60.219 96.789-60.219 155.546 0 58.749 21.387 113.987 60.219 155.546 16.625 17.792 35.602 32.147 56.168 42.768-7.023 2.109-13.992 4.468-20.891 7.092-33.859 12.868-65.351 31.571-93.601 55.581-27.977 23.779-51.992 52.095-71.379 84.155-19.727 32.632-34.113 68.253-42.75 105.879l31.824 8.363c15.387-67.032 51.856-127.741 102.688-170.943 25.418-21.603 53.742-38.429 84.187-50.001 31.5-11.975 64.59-18.047 98.353-18.047 33.719 0 66.77 6.061 98.234 18.009 30.414 11.548 58.715 28.332 84.117 49.892 50.797 43.11 87.285 103.716 102.75 170.646l31.809-8.412c-8.68-37.572-23.086-73.134-42.828-105.703C768.236 705.118 744.228 676.857 716.264 653.127zM341.498 392.295c0-101.963 77.535-184.923 172.84-184.923 95.316 0 172.867 82.96 172.867 184.923 0 101.98-77.547 184.944-172.867 184.944C419.032 577.239 341.498 494.275 341.498 392.295zM982.037 698.884c-13.307-21.957-29.775-41.345-48.961-57.626-19.369-16.439-40.955-29.243-64.158-38.053-4.477-1.701-8.996-3.242-13.549-4.626 14.262-7.307 27.418-17.228 38.93-29.547 26.646-28.513 41.32-66.407 41.32-106.71 0-40.31-14.674-78.207-41.32-106.714-26.646-28.506-62.072-44.203-99.752-44.203-24.16 0-47.381 6.483-67.965 18.633 3.754 7.017 6.639 14.604 8.49 22.594 17.496-10.905 37.809-17.177 59.475-17.177 65.391 0 118.594 56.913 118.594 126.864 0 69.962-53.199 126.878-118.594 126.878-7.205 0-14.258-0.71-21.111-2.035 0.006 0.451 0.033 0.897 0.033 1.35 0 9.229-1.381 18.16-3.916 26.582 8.074-1.046 16.234-1.574 24.453-1.574 23.133 0 45.807 4.159 67.394 12.354 20.864 7.923 40.28 19.438 57.706 34.229 34.85 29.574 59.882 71.152 70.492 117.069l21.82-5.771C1005.463 745.624 995.58 721.227 982.037 698.884zM258.448 615.093c-2.535-8.422-3.916-17.354-3.916-26.582 0-0.452 0.026-0.898 0.033-1.35-6.854 1.325-13.906 2.035-21.112 2.035-65.394 0-118.593-56.916-118.593-126.878 0-69.951 53.202-126.864 118.593-126.864 21.667 0 41.979 6.272 59.476 17.177 1.852-7.99 4.736-15.577 8.49-22.594-20.585-12.15-43.806-18.633-67.966-18.633-37.679 0-73.105 15.697-99.751 44.203-26.646 28.508-41.32 66.404-41.32 106.714 0 40.303 14.674 78.198 41.32 106.71 11.512 12.319 24.668 22.24 38.93 29.547-4.554 1.384-9.072 2.925-13.55 4.626-23.202 8.81-44.788 21.613-64.158 38.053-19.185 16.281-35.654 35.669-48.96 57.626-13.544 22.343-23.427 46.74-29.382 72.516l21.821 5.771c10.61-45.917 35.643-87.495 70.491-117.069 17.427-14.791 36.842-26.306 57.707-34.229 21.587-8.195 44.26-12.354 67.394-12.354C242.213 613.519 250.374 614.047 258.448 615.093z" p-id="6475"></path></svg>