<?xml version="1.0" standalone="no"?><!DOCTYPE svg PUBLIC "-//W3C//DTD SVG 1.1//EN" "http://www.w3.org/Graphics/SVG/1.1/DTD/svg11.dtd"><svg t="1574256906900" class="icon" viewBox="0 0 1024 1024" version="1.1" xmlns="http://www.w3.org/2000/svg" p-id="4161" xmlns:xlink="http://www.w3.org/1999/xlink" width="200" height="200"><defs><style type="text/css"></style></defs><path d="M512 1024.042667c-282.325333 0-512-229.674667-512-512s229.674667-512 512-512 512 229.674667 512 512-229.674667 512-512 512z m0-981.333334c-258.773333 0-469.333333 210.56-469.333333 469.333334s210.56 469.333333 469.333333 469.333333 469.333333-210.56 469.333333-469.333333-210.56-469.333333-469.333333-469.333334z" fill="" p-id="4162"></path><path d="M512 938.496a423.594667 423.594667 0 0 1-301.653333-124.8 21.333333 21.333333 0 0 1 30.165333-30.165333A381.397333 381.397333 0 0 0 512 895.829333a21.333333 21.333333 0 0 1 0 42.666667zM798.592 819.968a21.333333 21.333333 0 0 1-15.104-36.394667c72.405333-72.405333 112.298667-168.832 112.298667-271.530666s-39.893333-199.125333-112.298667-271.530667a21.333333 21.333333 0 0 1 30.165333-30.165333c80.469333 80.469333 124.8 187.605333 124.8 301.696s-44.330667 221.226667-124.8 301.696a21.248 21.248 0 0 1-15.061333 6.229333zM512 725.376c-117.632 0-213.333333-95.701333-213.333333-213.333333s95.701333-213.333333 213.333333-213.333334 213.333333 95.701333 213.333333 213.333334-95.701333 213.333333-213.333333 213.333333z m0-384c-94.122667 0-170.666667 76.544-170.666667 170.666667s76.544 170.666667 170.666667 170.666666 170.666667-76.544 170.666667-170.666666-76.544-170.666667-170.666667-170.666667z" fill="" p-id="4163"></path><path d="M512 512.042667m-42.666667 0a42.666667 42.666667 0 1 0 85.333334 0 42.666667 42.666667 0 1 0-85.333334 0Z" fill="" p-id="4164"></path></svg>