<?xml version="1.0" standalone="no"?><!DOCTYPE svg PUBLIC "-//W3C//DTD SVG 1.1//EN" "http://www.w3.org/Graphics/SVG/1.1/DTD/svg11.dtd"><svg t="1574401903438" class="icon" viewBox="0 0 1024 1024" version="1.1" xmlns="http://www.w3.org/2000/svg" p-id="22004" xmlns:xlink="http://www.w3.org/1999/xlink" width="200" height="200"><defs><style type="text/css"></style></defs><path d="M480.96 980.032c-246.528 0-447.04-200.576-447.04-447.04s200.576-447.04 447.04-447.04c68.864 0 134.912 15.232 196.288 45.312 7.936 3.904 11.2 13.44 7.296 21.376-3.968 8-13.376 11.136-21.44 7.36-56.96-27.904-118.272-42.048-182.208-42.048-228.864 0-415.04 186.176-415.04 415.04s186.176 415.04 415.04 415.04S896 761.792 896 532.928c0-47.168-7.808-93.44-23.232-137.6-2.88-8.32 1.472-17.472 9.856-20.352 8.064-2.944 17.408 1.472 20.352 9.792C919.552 432.32 928 482.176 928 532.928 928 779.456 727.424 980.032 480.96 980.032z" p-id="22005" fill="#ffffff"></path><path d="M867.904 358.72c-5.888 0-11.584-3.264-14.4-8.96-33.344-67.52-84.352-124.864-147.712-165.76-7.424-4.8-9.536-14.656-4.736-22.144S715.776 152.32 723.2 157.12c68.16 44.032 123.2 105.792 159.04 178.56 3.904 7.936 0.64 17.472-7.296 21.376C872.704 358.208 870.272 358.72 867.904 358.72z" p-id="22006" fill="#ffffff"></path><path d="M480.896 224.064c-170.368 0-308.928 138.624-308.928 308.928 0 170.368 138.624 308.864 308.928 308.864 170.368 0 308.992-138.496 308.992-308.864S651.392 224.064 480.896 224.064zM480.896 625.472c-51.008 0-92.544-41.472-92.544-92.48s41.472-92.544 92.544-92.544c51.008 0 92.608 41.472 92.608 92.544C573.504 584 531.968 625.472 480.896 625.472zM480.896 491.648c-22.784 0-41.344 18.56-41.344 41.344 0 22.72 18.56 41.28 41.344 41.28S522.24 555.776 522.24 532.992C522.24 510.208 503.68 491.648 480.896 491.648z" p-id="22007" fill="#ffffff"></path><path d="M789.888 175.808c-1.92 0-3.904-0.32-5.824-1.024-9.344-3.2-14.4-13.376-11.136-22.784l34.112-99.2c3.264-9.344 13.376-14.464 22.72-11.072 9.344 3.2 14.4 13.376 11.136 22.784l-34.112 99.2C804.224 171.072 797.312 175.808 789.888 175.808z" p-id="22008" fill="#ffffff"></path><path d="M880.128 262.272c-9.152 0-16.96-6.912-17.792-16.192-0.96-9.856 6.272-18.624 16.128-19.52l104.384-9.92c9.792-1.152 18.56 6.336 19.52 16.128s-6.272 18.624-16.128 19.52l-104.384 9.92C881.28 262.272 880.704 262.272 880.128 262.272z" p-id="22009" fill="#ffffff"></path><path d="M846.016 213.12c-4.8 0-9.6-1.92-13.184-5.76-6.656-7.232-6.272-18.624 1.024-25.344l76.992-71.168c7.296-6.656 18.56-6.336 25.344 1.024 6.656 7.232 6.272 18.624-1.024 25.344l-76.992 71.168C854.656 211.584 850.368 213.12 846.016 213.12z" p-id="22010" fill="#ffffff"></path><path d="M480.896 532.928m-60.608 0a0.947 0.947 0 1 0 121.216 0 0.947 0.947 0 1 0-121.216 0Z" p-id="22011" fill="#ffffff"></path><path d="M480.96 224c-170.624 0-308.928 138.304-308.928 308.928s138.304 308.928 308.928 308.928 308.928-138.304 308.928-308.928S651.584 224 480.96 224zM480.96 624.96c-50.816 0-92.032-41.216-92.032-92.032S430.144 440.96 480.96 440.96s92.032 41.216 92.032 92.032S531.776 624.96 480.96 624.96z" p-id="22012" fill="#ffffff"></path></svg>