<?xml version="1.0" standalone="no"?><!DOCTYPE svg PUBLIC "-//W3C//DTD SVG 1.1//EN" "http://www.w3.org/Graphics/SVG/1.1/DTD/svg11.dtd"><svg t="1574574193026" class="icon" viewBox="0 0 1024 1024" version="1.1" xmlns="http://www.w3.org/2000/svg" p-id="59488" xmlns:xlink="http://www.w3.org/1999/xlink" width="200" height="200"><defs><style type="text/css"></style></defs><path d="M236.6 411.6h3.4c7 0 12.6 5.7 12.6 12.8v163.4c0 7.1 5.6 12.8 12.6 12.8h80.9c6.9 0 12.6 5.7 12.6 12.8 0 7.1-5.6 12.8-12.6 12.8H236.6c-6.9 0-12.6-5.7-12.6-12.8v-189c0-7.1 5.7-12.8 12.6-12.8z m172.3 0c8 0 14.5 6.6 14.5 14.7v185.2c0 8.1-6.5 14.7-14.5 14.7s-14.5-6.6-14.5-14.7V426.2c0-8.1 6.5-14.6 14.5-14.6z m81.1 10.1L533.3 552c4.5 13.6 23.5 13.6 28-0.1L604 421.8c2-6.1 7.7-10.2 14-10.2h0.4c10.2 0 17.4 10.3 13.9 20.1l-66.4 184.6c-2.1 5.9-7.7 9.8-13.9 9.8h-9.7c-6.2 0-11.7-3.9-13.9-9.9l-66.2-184.6c-3.5-9.8 3.6-20.1 13.9-20.1 6.2 0.1 11.9 4.1 13.9 10.2z m191.4-10.1h129c6.8 0 12.2 5.6 12.2 12.4v1.5c0 6.8-5.5 12.4-12.2 12.4h-101c-6.8 0-12.2 5.6-12.2 12.4v40.3c0 6.9 5.5 12.4 12.2 12.4h91.5c6.8 0 12.2 5.6 12.2 12.4 0 6.9-5.5 12.4-12.2 12.4h-91.5c-6.8 0-12.2 5.6-12.2 12.4v47.9c0 6.8 5.5 12.4 12.2 12.4h103.2c6.8 0 12.2 5.6 12.2 12.4v0.7c0 6.8-5.5 12.4-12.2 12.4H681.4c-6.8 0-12.2-5.6-12.2-12.4V424c0-6.9 5.5-12.4 12.2-12.4z" p-id="59489"></path><path d="M503.6 956.9C266.9 951.8 71.6 755 68.3 518.2c-0.1-4.3 1.5-8.3 4.5-11.4 3-3.1 7-4.8 11.3-4.9 8.9 0 16.1 7.1 16.3 15.8 3 219.7 184.3 402.4 404 407.1l8.1 0.1c128.8 0 247.8-58 326.6-159.2l9.8-12.5-30.5 8.1c-1.5 0.4-3 0.6-4.4 0.6-5.8 0-11.1-3.2-14.1-8.4s-3-11.1 0-16.3c2.2-3.8 5.8-6.5 10-7.7l69.4-18.4c1.4-0.4 2.8-0.6 4.2-0.6 7.4 0 13.9 5 15.8 12.2l18.4 69.4c1.1 4.2 0.5 8.6-1.7 12.5-3 5.2-8.1 8.2-14.1 8.2-6.3 0-13.7-3.8-16-12.2l-8.6-32.4-6.6 9C786.2 891.4 655.9 957 513.5 957l-9.9-0.1zM939.7 522.1c-8.7 0-15.9-7.1-16-15.8-3.1-219.8-184.3-402.4-404-407.1l-8.1-0.1c-128.8 0-247.8 58-326.5 159.2l-9.8 12.5 30.5-8.1c1.5-0.4 3-0.6 4.4-0.6 5.7 0 11.1 3.2 14 8.3 3 5.2 3 11.1-0.1 16.4-2.2 3.8-5.8 6.5-10 7.6l-69.3 18.4c-1.4 0.3-2.8 0.5-4.2 0.5-7.4 0-13.9-5-15.9-12.2l-18.4-69.3c-1.1-4.2-0.5-8.7 1.7-12.4 3-5.2 8.1-8.2 14.1-8.2 6.3 0 13.7 3.8 16 12.2l8.6 32.4 6.6-8.9C237.7 132.5 368.2 67 511.1 67l9.2 0.1c236.8 5 432.1 201.8 435.4 438.7 0.1 4.3-1.5 8.3-4.5 11.4-3 3.1-7 4.8-11.2 4.9h-0.3z" p-id="59490"></path></svg>