<?xml version="1.0" standalone="no"?><!DOCTYPE svg PUBLIC "-//W3C//DTD SVG 1.1//EN" "http://www.w3.org/Graphics/SVG/1.1/DTD/svg11.dtd"><svg class="icon" width="200px" height="200.00px" viewBox="0 0 1024 1024" version="1.1" xmlns="http://www.w3.org/2000/svg"><path d="M995.091 75.393c0-27.633-22.644-50.979-49.448-50.979-1.046 0-2.104 0.038-3.146 0.112l-0.465 0.017H938L370.925 90.739h-0.379c-27.564 0-50.85 24.296-50.85 53.054v558.051l-19.193-14.401c-31.209-22.272-65.738-34.045-99.858-34.045-91.616 0-163.382 71.766-163.382 163.381 0 90.09 73.293 163.384 163.382 163.384 89.46 0 161.211-71.797 163.383-163.458V343.148l586.731-63.188v315.967l-19.257-14.44c-28.114-21.625-64.464-34.001-99.794-34.001-90.09 0-163.383 73.293-163.383 163.382s73.293 163.381 163.383 163.381c42.521 0 85.342-17.432 114.544-46.631l0.161-0.155c31.391-29.299 48.677-69.922 48.677-114.388V75.393zM284.689 903.03c-22.574 22.576-52.422 35.009-84.045 35.009-31.621 0-61.467-12.434-84.043-35.009-22.575-22.574-35.008-52.422-35.008-84.042 0-31.623 12.433-61.47 35.008-84.045 22.575-22.574 52.422-35.007 84.043-35.007 31.623 0 61.176 12.138 83.217 34.18 21.98 21.981 34.705 52.043 35.83 84.647l0.004 0.224c0.001 31.622-12.431 61.469-35.006 84.043z m663.862-667.327l-586.727 63.184V132.862h12.759l573.969-67.001v169.842z m-32.798 561.415c-22.574 22.576-52.422 35.009-84.045 35.009-31.621 0-61.467-12.434-84.042-35.009-22.575-22.576-35.008-52.423-35.008-84.043 0-31.623 12.433-61.47 35.008-84.044 22.574-22.574 52.422-35.007 84.042-35.007 31.623 0 61.471 12.432 84.045 35.007 22.574 22.574 35.006 52.422 35.006 84.044 0 31.621-12.432 61.469-35.006 84.043z" /></svg>