<?xml version="1.0" standalone="no"?><!DOCTYPE svg PUBLIC "-//W3C//DTD SVG 1.1//EN" "http://www.w3.org/Graphics/SVG/1.1/DTD/svg11.dtd"><svg t="1574401687547" class="icon" viewBox="0 0 1026 1024" version="1.1" xmlns="http://www.w3.org/2000/svg" p-id="10285" xmlns:xlink="http://www.w3.org/1999/xlink" width="200.390625" height="200"><defs><style type="text/css"></style></defs><path d="M511.152563 27.736752l-26.902766 0c-52.003048 0-94.159683 42.156635-94.159683 94.159683l0 780.180228c0 52.003048 42.156635 94.159683 94.159683 94.159683l26.902766 0c52.003048 0 94.159683-42.156635 94.159683-94.159683l0-780.180228C605.312245 69.92029 563.15561 27.736752 511.152563 27.736752zM833.98576 350.56995l-26.902766 0c-52.003048 0-94.159683 42.129732-94.159683 94.159683l0 457.34703c0 52.003048 42.156635 94.159683 94.159683 94.159683l26.902766 0c52.003048 0 94.159683-42.156635 94.159683-94.159683l0-457.34703C928.145443 392.726585 885.988808 350.56995 833.98576 350.56995zM188.319365 619.597614 161.416599 619.597614c-52.003048 0-94.159683 42.129732-94.159683 94.159683l0 188.319365c0 52.003048 42.156635 94.159683 94.159683 94.159683l26.902766 0c52.003048 0 94.159683-42.156635 94.159683-94.159683l0-188.319365C282.479048 661.75425 240.322413 619.597614 188.319365 619.597614z" p-id="10286" fill="#ffffff"></path></svg>