<?xml version="1.0" standalone="no"?>
<!DOCTYPE svg PUBLIC "-//W3C//DTD SVG 1.1//EN" "http://www.w3.org/Graphics/SVG/1.1/DTD/svg11.dtd">
<svg t="1574574002143" class="icon" viewBox="-60 -60 1200 1200" version="1.1" xmlns="http://www.w3.org/2000/svg" p-id="50964" xmlns:xlink="http://www.w3.org/1999/xlink" width="200" height="200">
	<defs>
		<style type="text/css">
		</style>
	</defs>
	<path d="M234.666667 386.133333c21.333333 0 36.266667 6.4 44.8 19.2 10.666667 12.8 14.933333 25.6 14.933333 42.666667v435.2H106.666667V450.133333c0-21.333333 6.4-36.266667 19.2-46.933333 12.8-10.666667 27.733333-17.066667 42.666666-17.066667H234.666667zM546.133333 140.8c17.066667 0 32 6.4 42.666667 17.066667s14.933333 23.466667 14.933333 38.4v686.933333h-185.6V198.4c0-10.666667 2.133333-19.2 6.4-25.6 4.266667-6.4 8.533333-12.8 14.933334-17.066667s12.8-8.533333 19.2-10.666666c6.4-2.133333 14.933333-4.266667 19.2-4.266667h68.266666z m309.333334 433.066667c6.4 0 12.8 2.133333 19.2 4.266666 6.4 4.266667 12.8 8.533333 19.2 14.933334 6.4 6.4 10.666667 12.8 14.933333 21.333333 4.266667 8.533333 6.4 14.933333 6.4 23.466667v245.333333h-185.6V637.866667c0-6.4 2.133333-14.933333 4.266667-23.466667 2.133333-8.533333 6.4-14.933333 12.8-21.333333 4.266667-6.4 10.666667-10.666667 19.2-14.933334 6.4-4.266667 14.933333-6.4 23.466666-6.4l66.133334 2.133334z" p-id="50965">
	</path>
</svg>
