<?xml version="1.0" standalone="no"?>
<!DOCTYPE svg PUBLIC "-//W3C//DTD SVG 1.1//EN" "http://www.w3.org/Graphics/SVG/1.1/DTD/svg11.dtd">
<svg t="1574574892737" class="icon" viewBox="150 150 700 700" version="1.1" xmlns="http://www.w3.org/2000/svg" p-id="66718" xmlns:xlink="http://www.w3.org/1999/xlink" width="200" height="200">
	<defs>
		<style type="text/css">
		</style>
	</defs>
	<path d="M380.121212 263.757576h263.757576c64.263758 0 116.363636 52.099879 116.363636 116.363636v263.757576c0 64.263758-52.099879 116.363636-116.363636 116.363636H380.121212c-64.263758 0-116.363636-52.099879-116.363636-116.363636V380.121212c0-64.263758 52.099879-116.363636 116.363636-116.363636z m-3.878788 116.363636a19.393939 19.393939 0 1 0 0 38.787879h162.909091a19.393939 19.393939 0 1 0 0-38.787879h-162.909091z m0 100.848485a19.393939 19.393939 0 1 0 0 38.787879h131.878788a19.393939 19.393939 0 1 0 0-38.787879h-131.878788z m0 100.848485a19.393939 19.393939 0 1 0 0 38.787879h85.333334a19.393939 19.393939 0 1 0 0-38.787879h-85.333334zM628.363636 403.393939l39.408485 45.971394A10.162424 10.162424 0 0 0 682.666667 449.939394a12.838788 12.838788 0 0 0 1.303272-16.632242L628.363636 356.848485h-23.272727v197.818182a58.181818 58.181818 0 1 0 23.148606 50.424242H628.363636V403.393939z" p-id="66719">
	</path>
</svg>
