<?xml version="1.0" standalone="no"?><!DOCTYPE svg PUBLIC "-//W3C//DTD SVG 1.1//EN" "http://www.w3.org/Graphics/SVG/1.1/DTD/svg11.dtd"><svg t="1574401411849" class="icon" viewBox="0 0 1024 1024" version="1.1" xmlns="http://www.w3.org/2000/svg" p-id="4161" xmlns:xlink="http://www.w3.org/1999/xlink" width="200" height="200"><defs><style type="text/css"></style></defs><path d="M554.666667 938.666667H128a21.333333 21.333333 0 0 1-21.333333-21.333334v-640c0-5.674667 2.261333-11.093333 6.229333-15.104l256-256A21.333333 21.333333 0 0 1 384 0h469.333333a21.333333 21.333333 0 0 1 21.333334 21.333333v640a21.333333 21.333333 0 0 1-42.666667 0V42.666667H392.832L149.333333 286.165333V896H554.666667a21.333333 21.333333 0 0 1 0 42.666667z" fill="" p-id="4162"></path><path d="M384 298.666667H128a21.333333 21.333333 0 0 1 0-42.666667h234.666667V21.333333a21.333333 21.333333 0 1 1 42.666666 0v256A21.333333 21.333333 0 0 1 384 298.666667zM896 1024h-256a21.333333 21.333333 0 0 1 0-42.666667h256a21.333333 21.333333 0 0 1 0 42.666667zM896 938.666667h-256a21.333333 21.333333 0 0 1 0-42.666667h256a21.333333 21.333333 0 0 1 0 42.666667zM896 853.333333h-256a21.333333 21.333333 0 0 1 0-42.666666h256a21.333333 21.333333 0 0 1 0 42.666666zM896 768h-256a21.333333 21.333333 0 0 1 0-42.666667h256a21.333333 21.333333 0 0 1 0 42.666667zM512 597.333333a21.333333 21.333333 0 0 1-21.333333-21.333333v-256A21.333333 21.333333 0 0 1 512 298.666667h85.333333a21.333333 21.333333 0 0 1 0 42.666666h-64v234.666667a21.333333 21.333333 0 0 1-21.333333 21.333333z" fill="" p-id="4163"></path><path d="M448 640c-47.872 0-85.333333-28.117333-85.333333-64s37.461333-64 85.333333-64 85.333333 28.117333 85.333333 64-37.461333 64-85.333333 64z m0-85.333333c-26.026667 0-42.666667 12.629333-42.666667 21.333333s16.64 21.333333 42.666667 21.333333 42.666667-12.629333 42.666667-21.333333-16.64-21.333333-42.666667-21.333333z" fill="" p-id="4164"></path></svg>