<?xml version="1.0" standalone="no"?>
<!DOCTYPE svg PUBLIC "-//W3C//DTD SVG 1.1//EN" "http://www.w3.org/Graphics/SVG/1.1/DTD/svg11.dtd">
<svg t="1574331545592" class="icon" viewBox="0 0 1024 1024" version="1.1" xmlns="http://www.w3.org/2000/svg" p-id="20845" xmlns:xlink="http://www.w3.org/1999/xlink" width="200" height="200">
	<defs>
		<style type="text/css">
		</style>
	</defs>
	<path d="M512 0c-282.750562 0-512 229.249438-512 512s229.249438 512 512 512 512-229.249438 512-512S794.750562 0 512 0zM512.862921 1001.851685c-270.669663 0-490.139326-219.469663-490.139326-490.139326s219.469663-490.139326 490.139326-490.139326 490.139326 219.469663 490.139326 490.139326S783.532584 1001.851685 512.862921 1001.851685z" p-id="20846">
	</path>
	<path d="M658.121348 490.906367 658.121348 490.906367 457.156554 345.74382c-4.698127-3.931086-10.738577-6.32809-17.258427-6.32809-14.861423 0-26.846442 12.080899-26.846442 26.846442 0 0 0 0 0 0.09588l0 290.996255 0.09588 0c0 0.09588 0 0.19176 0 0.383521 0 14.861423 12.080899 26.846442 26.846442 26.846442 6.32809 0 12.176779-2.205243 16.874906-5.944569l0.09588 0 200.677154-144.874906c6.61573-4.889888 11.026217-12.75206 11.026217-21.668914C668.572285 503.466667 664.449438 495.796255 658.121348 490.906367z" p-id="20847">
	</path>
</svg>
